<?xml version="1.0" encoding="UTF-8"?><svg xmlns="http://www.w3.org/2000/svg" width="660.626" height="72.937" viewBox="0 0 660.626 72.937"><g id="a"/><g id="b"><g id="c"><path d="M537.451,6.193c0,3.1121-3.035,5.313-6.224,7.0591-2.277-1.8981-4.706-4.5551-4.706-7.363,0-3.1121,2.96-4.934,5.465-4.934,2.733,0,5.465,1.8219,5.465,5.2379m-5.313,8.577c2.733,2.96,5.769,5.92,9.64,7.438v.911c-2.96,0-4.098,.9871-4.098,3.947v17.762c0,1.897,1.138,2.96,2.428,2.96,1.063,0,1.746-.6069,2.884-1.3669l.38,.76-10.93,9.184c-6.073-3.871-6.148-8.197-6.148-10.778V27.066c0-2.353,0-4.099-1.594-4.099-.684,0-1.822,.608-2.505,1.215l-.684-.759,10.627-8.653Z" fill="#222"/><path d="M547.924,27.066c0-2.657-1.214-3.644-2.657-3.644-.834,0-1.821,.8351-2.353,1.443l-.607-.9869,10.019-9.108c3.72,2.0491,6.907,4.1741,6.984,9.108l10.323-9.032c3.719,2.049,6.907,4.174,6.983,9.1079l12.448-9.184c2.05,2.96,5.085,5.92,8.957,7.438v.911c-2.961,0-4.099,.9871-4.099,3.947v17.761c0,1.8981,1.138,2.9611,2.429,2.9611,1.062,0,1.745-.608,2.885-1.3671l.379,.759-10.931,9.1849c-6.071-3.7949-6.148-8.1219-6.148-10.7019V26.079c0-1.366-.379-3.1119-1.821-3.1119-.607,0-1.291,.304-1.822,.683l-2.277,1.594v20.494c0,1.442,.607,2.353,2.125,2.4301v.9099c-3.871,1.063-6.452,4.175-7.742,7.287-2.504-3.491-5.617-6.2999-8.729-7.287v-.9099h.911c1.518,0,2.05-1.519,2.05-4.175V25.0171c0-1.7461-.988-2.1261-1.594-2.1261-.684,0-1.443,.3041-2.05,.6831l-2.277,1.594v20.5699c0,1.442,.607,2.353,2.125,2.4301v.9099c-3.871,1.063-6.452,4.175-7.742,7.287-2.505-3.491-5.617-6.2999-9.64-7.287v-.9099h1.214c2.126,0,2.657-1.291,2.657-4.175V27.066" fill="#222"/><path d="M617.524,32.683l-7.135-12.903h-.152c-.075,5.009-.227,10.019-.227,13.9659,0,1.973,.076,2.8091,.227,3.6431l7.287-4.7061m9.716-4.554l-16.775,10.627c1.139,4.5541,5.162,8.5011,10.399,8.5011,2.505,0,4.934-1.974,6.832-3.1121l.53,.835c-4.857,3.719-10.094,7.0591-14.649,11.386-9.412-3.4919-14.498-7.7429-14.498-18.37,0-12.448,.836-15.105,7.895-18.1399l11.917-5.0861,8.349,13.359Z" fill="#222"/><path d="M643.114,34.499c3.883,0,7.69-3.806,9.137-7.004l-.153-.152c-1.066,.761-2.665,1.0659-4.111,1.0659-4.112,0-8.223-2.6649-10.888-5.6349-1.142,.5339-1.371,1.9039-1.371,3.0459,0,4.035,2.971,8.6791,7.386,8.6791m1.904,1.371c-4.188,0-8.3,3.578-9.974,7.386,5.863,0,11.343,2.359,16.292,5.481,.838-1.0659,1.066-2.512,1.066-3.8059,0-4.5691-2.36-9.061-7.384-9.061Zm-18.274,18.349c2.818-3.6541,5.406-7.613,7.386-11.801-3.731-1.827-6.624-4.416-6.624-8.907,0-9.137,11.877-11.269,15.075-18.8829,1.9041,2.2839,4.425,3.948,7.386,4.188,2.587,.209,8.437-.5231,7.776-5.556,0,0,.802-.312,.808-.286,.233,1.079,.438,2.176,.438,3.384,0,7.015-5.064,8.168-5.825,11.594,4.112,.762,7.462,4.4149,7.462,8.6799,0,8.983-7.462,9.212-14.847,20.328-3.046-2.132-10.66-4.567-14.238-4.567-1.903,0-2.893,.7611-3.807,2.359l-.99-.533Z" fill="#222"/><path d="M491.432,27.601l17.275-10.973,.191,.095,.005,2.3461v13.984c0,3.3629-2.5,6.0859-5.41,8.078l-9.278,5.8939-.402-.9569s4.479-2.813,4.479-2.8501c0-.0499-.01-18.75-.01-18.75l-6.277,3.9871-.573-.854" fill="#222"/><path d="M514.227,5.299c3.838,.8929,4.853-3.8571-1.989-3.8571-.014-.0709-.072-.632-.09-.7,0,0,3.569-.924,6.142-.234,2.618,.703,5.617,2.8881,5.617,7.663,0,5.1271-6.077,10.0011-14.546,7.567-8.336-2.395-14.107-3.995-17.011-4.865-5.239-1.569-7.119,4.245-2.807,6.113,0,0-.305,.585-.361,.715-3.495-.575-6.861-4.2159-6.829-8.324,.033-4.0959,1.678-5.887,3.834-7.281,1.791-1.158,4.796-2.427,10.77-1.519,2.74,.416,15.232,4.248,17.27,4.722" fill="#222"/><polyline points="513.239 6.243 513.239 51.7731 514.267 51.7731 514.267 6.229 513.239 6.243" fill="#222"/><path d="M500.186,13.674c.052,.176,.059,.917,.059,.917-9.775,4.83-11.98,27.661,.282,31.978,8.424,2.965,18.061,1.145,21.662-9.2781,.23,.019,1.006,.005,1.006,.005-.115,1.322-2.8719,20.667-21.192,20.135-17.743-.5129-21.094-14.486-21.094-21.3889,0-6.3251,3.499-18.4441,19.277-22.368" fill="#222"/><path d="M139.935,27.973c0-.663,1.147-1.674,2.615-1.674,1.483,0,2.602,1.043,2.602,1.674v1.717c0-.8871-1.063-2.38-2.602-2.38-1.454,0-2.615,1.4929-2.615,2.38v-1.717" fill="#222"/><path d="M145.152,21.75c0,.663-1.133,1.674-2.601,1.674-1.483,0-2.616-1.043-2.616-1.674v-1.717c0,.8871,1.077,2.38,2.616,2.38,1.454,0,2.601-1.4929,2.601-2.38v1.717" fill="#222"/><path d="M160.909,27.973c0-.663,1.147-1.674,2.615-1.674,1.483,0,2.602,1.043,2.602,1.674v1.717c0-.8871-1.063-2.38-2.602-2.38-1.454,0-2.615,1.4929-2.615,2.38v-1.717" fill="#222"/><path d="M166.126,21.75c0,.663-1.133,1.674-2.601,1.674-1.483,0-2.616-1.043-2.616-1.674v-1.717c0,.8871,1.077,2.38,2.616,2.38,1.454,0,2.601-1.4929,2.601-2.38v1.717" fill="#222"/><path d="M163.215,52.165c3.654-2.959,14.993-7.5551,14.993-12.8781l.008-23.281c0-2.3169,1.091-5.36,4.798-5.36v-.916c-4.805-3.016-8.322-6.891-10.266-9.6849-4.077,4.663-6.462,6.115-11.938,10.415l.032,1.6689c1.405-1.53,2.716-2.5079,4.368-1.355,.908,.6329,.866,3.397,.852,6.22V49.577l-8.818-7.691,.018-31.22c0-6.7269-4.422-9.443-6.124-10.6489-3.076,3.6759-7.194,6.95-11.251,10.3669-.001-.1689-.013,1.694,0,1.678,1.149-1.473,2.909-2.4409,4.335-1.287,.782,.632,.866,3.108,.866,5.498v30.4509s12.796,8.614,13.784,9.6271c.014,.0129,2.335-2.5601,4.343-4.186" fill="#222"/><path d="M136.961,56.402c2.459-3.3409,10.854-10.446,10.854-10.446-.27-.3789-.726-1.027-.726-1.027-.553,.546-2.192,2.037-3.249,2.9041,0,0-.549-.9551-.799-1.264-1.655-2.0439-4.067-3.843-6.792-4.658l-.002-31.3251c.002-6.693-4.756-9.422-6.551-10.5859-2.903,3.318-8.432,7.752-12.877,11.463l.686,.876c1.101-.915,2.676-2.303,4.135-1.875,2.605,.764,2.45,5.4,2.465,6.361l.034,24.79c-7.257,2.995-6.582,8.594-5.843,11.0649,.579,1.938,3.132,5.161,7.214,5.462l.095-.9039c-1.243-.202-2.822-.724-2.822-2.744,0-3.3981,4.046-4.134,5.43-4.134,4.604,0,7.383,3.942,8.748,6.042" fill="#222"/><polyline points="159.999 .1429 159.999 47.3829 160.976 47.3829 160.976 .141 159.999 .1429" fill="#222"/><rect x="138.974" y=".077" width=".9999" height="47.865" fill="#222"/><path d="M230.494,34.499c3.883,0,7.69-3.806,9.137-7.004l-.153-.152c-1.066,.761-2.665,1.0659-4.111,1.0659-4.112,0-8.223-2.6649-10.888-5.6349-1.142,.5339-1.371,1.9039-1.371,3.0459,0,4.035,2.971,8.6791,7.386,8.6791m1.904,1.371c-4.188,0-8.3,3.578-9.974,7.386,5.863,0,11.343,2.359,16.292,5.481,.838-1.0659,1.066-2.512,1.066-3.8059,0-4.5691-2.36-9.061-7.384-9.061Zm-18.274,18.349c2.818-3.6541,5.406-7.613,7.386-11.801-3.731-1.827-6.624-4.416-6.624-8.907,0-9.137,11.877-11.269,15.075-18.8829,1.904,2.2839,4.425,3.948,7.386,4.188,2.587,.209,8.437-.5231,7.776-5.556,0,0,.802-.312,.808-.286,.233,1.079,.438,2.176,.438,3.384,0,7.015-5.064,8.168-5.825,11.594,4.112,.762,7.462,4.4149,7.462,8.6799,0,8.983-7.462,9.212-14.847,20.328-3.046-2.132-10.66-4.567-14.238-4.567-1.903,0-2.893,.7611-3.807,2.359l-.99-.533Z" fill="#222"/><path d="M199.692,26.256c-2.277-.9871-4.554-3.113-6.376-4.782v23.9089c0,2.126,.456,3.644,1.898,3.644,.683,0,1.215-.228,1.594-.532l2.884-2.125V26.256m-17.761,2.808c0-3.644,1.518-5.2371,5.768-6.907,6.225-2.4291,10.399-5.0861,13.284-7.363,2.732,3.264,8.577,7.135,14.346,8.349v.911c-2.885,0-4.251,1.063-4.251,3.795v15.333c0,2.125,.227,5.0859,2.277,5.0859,.911,0,1.518-.532,2.884-1.215l.456,.835c-3.643,2.5811-6.983,5.39-10.02,8.5021-3.187-2.2771-6.603-5.0861-6.831-8.6541-3.795,2.657-7.439,5.542-10.854,8.6541-6.3-3.7201-7.059-5.921-7.059-10.4751V29.064Z" fill="#222"/><path d="M251.155,17.679c0-4.934-2.657-11.006-4.706-12.6l.835-.8351c1.366,1.3661,3.036,4.098,3.795,6.8311h.152c1.062-7.515,9.488-10.095,19.431-10.095h.455v1.366h-1.669c-5.921,0-6.907,4.175-6.907,9.64v11.917l12.448-9.108c4.402,5.313,5.313,7.438,5.313,12.6v14.7251c0,10.626-1.974,18.0649-10.778,24.365-3.492,2.505-7.439,4.403-11.235,6.452l-.531-1.0631c7.667-3.4159,11.158-8.0449,11.158-21.7079V27.7739c0-2.429-.303-4.8579-2.201-4.8579-.759,0-1.29,.304-1.669,.6069l-2.505,1.822v19.887c0,2.0491,.454,3.264,1.897,3.264,.683,0,1.594-.38,2.05-.835l.303,.9869c-3.567,2.125-6.907,4.781-9.867,7.7419-2.505-3.2639-5.617-5.845-9.64-7.059v-.911c3.34,.076,3.871-1.366,3.871-4.402V17.679" fill="#222"/><path d="M297.536,6.2169c0,3.1121-3.035,5.313-6.224,7.0591-2.277-1.8981-4.706-4.5551-4.706-7.363,0-3.1121,2.96-4.934,5.465-4.934,2.733,0,5.465,1.8219,5.465,5.2379m-5.313,8.577c2.733,2.96,5.769,5.92,9.64,7.439v.91c-2.96,0-4.098,.9871-4.098,3.947v17.762c0,1.8981,1.138,2.96,2.428,2.96,1.063,0,1.746-.6069,2.884-1.366l.38,.759-10.93,9.1849c-6.073-3.8719-6.148-8.198-6.148-10.7789V27.09c0-2.353,0-4.099-1.594-4.099-.684,0-1.822,.608-2.505,1.215l-.684-.759,10.627-8.653Z" fill="#222"/><path d="M319.243,45.7629c0,1.442,.607,2.353,2.126,2.429v.911c-3.872,1.062-6.452,4.175-7.742,7.287-2.505-3.4919-5.617-6.3009-9.64-7.287v-.911h1.214c2.125,0,2.657-1.2899,2.657-4.1749V27.0909c0-2.657-1.215-3.644-2.657-3.644-.835,0-1.822,.8351-2.353,1.443l-.607-.9869,10.019-9.109c3.72,2.05,6.907,4.175,6.983,9.109l12.449-9.109c2.049,2.9609,5.085,5.921,8.956,7.439v.91c-2.96,0-4.099,.9869-4.099,3.948v17.23c0,2.4291,1.139,3.491,2.429,3.491,1.062,0,1.745-.6069,2.885-1.366l.379,.759-10.931,9.1849c-6.071-3.8719-6.147-8.198-6.147-10.7789V26.028c0-1.366-.379-3.1121-1.821-3.1121-.76,0-1.215,.3031-1.822,.6831l-2.278,1.594v20.5699" fill="#222"/><path d="M360.988,26.635c-2.278-.9869-4.402-2.353-6.377-3.947v22.0121c0,2.277,.456,4.3269,1.897,4.3269,.38,0,.987-.0759,1.594-.532l2.886-2.125V26.635m-17.762,.911c0-5.541,10.399-5.0861,18.066-12.752,4.021,4.251,9.864,7.4819,14.724,8.231v1.0291c-2.884,0-3.643,1.063-3.643,3.7949v21.785c0,1.139,1.062,2.125,2.126,3.491,.986,1.366,2.048,3.1121,2.048,5.921,0,9.108-9.715,13.89-17.685,13.89-5.162,0-14.649-.759-14.649-7.894,0-3.188,2.733-5.01,5.692-5.01,2.961,0,6.681,1.368,6.603,4.859,0,5.2371-4.705,3.946-4.705,5.313,0,1.214,3.644,1.3661,4.63,1.3661,4.859,0,10.551-2.0491,10.551-7.7421s-5.845-6.832-5.845-16.092c-3.795,2.6571-7.439,5.5421-10.855,8.6541-6.3-3.72-7.058-5.921-7.058-10.475V27.546Z" fill="#222"/><path d="M391.803,39.842c0,3.264,.304,6.756,2.808,6.756,2.049,0,3.795-1.443,4.857-2.125l.608,.7581-12.6,11.1589c-2.352-3.569-6.679-7.287-10.93-8.198v-1.1389c.607,.152,1.139,.2279,1.594,.2279,2.05,0,2.278-.835,2.278-3.188V24.046h-3.863v-1.0289c7.971-2.201,11.604-11.411,13.882-18.698h1.366v15.485h7.743v4.2009h-7.743v15.837" fill="#222"/><path d="M413.662,43.182c2.429,1.215,4.553,3.037,6.375,4.7059V28.457c0-3.4911-1.062-5.92-6.375-7.0591v21.7841m-11.387-21.936c7.364,.228,16.168-1.29,21.178-6.452,7.135,5.01,7.969,8.046,7.969,18.521,0,13.359-1.213,14.953-7.513,16.4711-4.175,.9869-6.9839,2.505-9.11,6.604-4.325-3.947-9.487-7.363-15.331-8.957v-.911c2.656-.228,2.807-2.201,2.807-3.1121V21.246Z" fill="#222"/><path d="M448.498,45.7629c0,1.442,.607,2.353,2.126,2.429v.911c-3.871,1.062-6.451,4.175-7.741,7.287-2.505-3.4919-5.617-6.3009-9.64-7.287v-.911h1.214c2.124,0,2.656-1.2899,2.656-4.1749V27.0909c0-2.657-1.215-3.644-2.656-3.644-.835,0-1.822,.8351-2.354,1.443l-.607-.9869,10.019-9.109c3.72,2.05,6.908,4.175,6.983,9.109l12.449-9.109c2.05,2.9609,5.085,5.921,8.957,7.439v.91c-2.961,0-4.099,.9869-4.099,3.948v17.23c0,2.4291,1.138,3.491,2.428,3.491,1.064,0,1.747-.6069,2.886-1.366l.379,.759-10.93,9.1849c-6.072-3.8719-6.149-8.198-6.149-10.7789V26.028c0-1.366-.379-3.1121-1.821-3.1121-.7599,0-1.214,.3031-1.822,.6831l-2.278,1.594v20.5699" fill="#222"/><path d="M44.346,6.999c.77,.769,1.727,2.674,1.907,3.74l.117,.296C48.442,2.629,55.437,1.01,65.367,1.01h.455v1.365h-1.668c-5.908,0-6.893,4.1641-6.893,9.618v11.897l12.423-9.092c4.393,5.302,5.304,7.422,5.304,12.5751v14.698c0,10.609-1.51,18.038-10.299,24.324-3.485,2.4969-7.423,4.394-11.211,6.439l-.528-1.062c7.65-3.406,10.674-8.031,10.674-21.672V27.751c0-2.424-.303-4.8469-2.196-4.8469-.76,0-1.288,.299-1.667,.606l-2.5,1.817v19.8459c0,2.047,.453,3.2621,1.893,3.2621,.683,0,1.59-.38,2.045-.838l.304,.986c-3.56,2.125-6.894,4.78-9.85,7.7371-2.5-3.259-5.605-5.844-9.62-7.057v-.905c3.333,.077,3.865-1.365,3.865-4.392V17.676c0-3.243-.652-6.817-1.539-8.889l-.013-1.788" fill="#222"/><path d="M98.236,14.771l-11.891,5.075c-7.044,3.0291-7.878,5.681-7.878,18.103,0,10.601,5.076,14.849,14.469,18.3369,4.543-4.3219,9.769-7.6599,14.616-11.3729l-.531-.8301c-1.893,1.134-4.316,3.1051-6.816,3.1051-5.225,0-9.24-3.941-10.377-8.484l16.74-10.605-8.332-13.328m-8.633,22.5699c-.151-.832-.226-1.668-.226-3.639,0-3.933,.15-8.933,.226-13.934h.152l7.118,12.8781-7.27,4.6949Z" fill="#222"/><path d="M19.277,13.563c.052,.176,.059,.917,.059,.917-9.775,4.83-11.98,27.661,.282,31.978,8.424,2.965,18.061,1.146,21.662-9.2781,.23,.019,1.006,.005,1.006,.005-.115,1.322-2.872,20.666-21.192,20.1361C3.351,56.808,0,42.834,0,35.932c0-6.326,3.499-18.4451,19.277-22.369" fill="#222"/><path d="M33.336,5.175c3.838,.8929,4.853-3.8571-1.989-3.8571-.014-.0709-.072-.632-.089-.7,0,0,3.568-.924,6.141-.234,2.619,.703,5.617,2.8881,5.617,7.663,0,5.1271-6.077,10.0011-14.546,7.567-8.336-2.395-14.106-3.994-17.011-4.865-5.238-1.569-7.118,4.245-2.806,6.113,0,0-.306,.585-.362,.715-3.495-.575-6.86-4.2159-6.828-8.324,.032-4.0959,1.678-5.887,3.834-7.281C7.088,.813,10.093-.455,16.066,.453c2.741,.416,15.232,4.248,17.27,4.722" fill="#222"/><polyline points="32.347 6.119 32.347 51.645 33.375 51.645 33.375 6.105 32.347 6.119" fill="#222"/><path d="M10.512,27.568l17.275-10.973,.191,.095,.005,2.3451v13.432c0,1.6689,.316,4.8989-5.41,8.631l-9.278,5.8939-.402-.958s4.48-2.813,4.48-2.849c0-.0499-.011-18.75-.011-18.75l-6.277,3.9871-.573-.854" fill="#222"/></g></g></svg>
